<?xml version="1.0" standalone="no"?>
<!DOCTYPE svg PUBLIC "-//W3C//DTD SVG 20010904//EN"
 "http://www.w3.org/TR/2001/REC-SVG-20010904/DTD/svg10.dtd">
<svg version="1.0" xmlns="http://www.w3.org/2000/svg"
 width="1444.000000pt" height="1444.000000pt" viewBox="0 0 1444.000000 1444.000000"
 preserveAspectRatio="xMidYMid meet">
<metadata>
Created by potrace 1.11, written by Peter Selinger 2001-2013
</metadata>
<g transform="translate(0.000000,1444.000000) scale(0.100000,-0.100000)"
fill="#000000" stroke="none">
<path d="M7147 14424 c-1 -1 -90 -5 -197 -8 -196 -7 -240 -10 -360 -21 -142
-13 -166 -15 -200 -20 -19 -2 -60 -7 -90 -10 -30 -3 -68 -8 -83 -11 -16 -3
-38 -7 -50 -9 -49 -6 -134 -19 -187 -29 -14 -3 -42 -8 -64 -11 -21 -3 -41 -7
-45 -9 -3 -2 -26 -7 -51 -10 -25 -3 -60 -10 -78 -15 -18 -5 -35 -10 -37 -10
-3 0 -18 -2 -33 -5 -15 -4 -36 -8 -47 -10 -140 -28 -475 -123 -695 -196 -499
-166 -966 -382 -1430 -660 -254 -153 -613 -404 -815 -572 -11 -9 -51 -42 -90
-74 -245 -203 -563 -513 -770 -748 -33 -38 -65 -74 -70 -80 -38 -40 -208 -253
-293 -366 -56 -74 -110 -146 -120 -160 -47 -61 -227 -338 -309 -475 -411 -685
-705 -1434 -867 -2208 -19 -89 -37 -180 -40 -201 -4 -21 -8 -48 -11 -60 -7
-31 -13 -71 -25 -161 -6 -44 -13 -91 -15 -105 -8 -40 -23 -174 -30 -256 -3
-33 -7 -75 -10 -94 -27 -223 -27 -967 0 -1235 11 -110 17 -173 21 -200 2 -16
6 -55 9 -85 7 -58 13 -99 20 -140 2 -14 7 -43 10 -65 8 -54 24 -154 30 -185 3
-14 14 -74 26 -135 22 -116 81 -369 103 -445 8 -25 18 -63 25 -85 143 -523
366 -1059 658 -1584 183 -330 498 -786 743 -1075 158 -187 262 -299 454 -491
249 -249 378 -363 644 -572 742 -583 1615 -1024 2517 -1271 156 -43 400 -102
483 -117 15 -2 86 -16 157 -29 129 -24 296 -49 409 -62 33 -3 67 -7 76 -9 10
-2 53 -6 96 -10 43 -4 95 -9 114 -11 253 -25 974 -25 1185 1 16 2 63 6 105 9
41 4 86 8 100 10 14 2 52 7 85 11 32 4 66 8 75 10 8 1 42 6 75 10 33 3 146 22
250 41 247 46 230 43 305 60 36 9 72 17 80 19 8 1 35 8 60 15 49 13 54 14 120
30 120 29 503 150 648 205 509 195 880 377 1332 656 54 33 253 166 337 225 72
51 218 158 223 164 3 3 37 30 75 60 213 165 375 311 636 570 232 232 420 443
612 690 203 260 485 695 639 985 85 159 248 496 248 510 0 3 12 30 26 62 14
32 32 72 40 88 7 17 22 55 34 85 11 30 25 64 30 75 15 31 138 390 167 485 53
181 74 256 80 285 3 17 9 38 14 48 5 9 8 17 5 17 -3 0 4 30 14 67 33 118 109
514 126 653 2 19 8 67 14 105 16 112 20 146 25 215 3 36 7 83 10 105 14 140
20 312 20 620 0 304 -4 421 -20 611 -11 133 -47 434 -61 504 -2 14 -6 41 -9
60 -3 19 -7 46 -10 60 -3 14 -8 41 -11 60 -77 463 -294 1175 -481 1580 -14 30
-32 71 -40 90 -77 178 -241 492 -376 718 -51 84 -96 161 -102 170 -11 18 -165
250 -177 267 -5 6 -71 96 -149 200 -78 105 -144 192 -148 195 -3 3 -26 30 -51
60 -75 92 -82 100 -174 204 -262 296 -562 582 -871 832 -813 656 -1753 1125
-2765 1380 -80 20 -156 38 -170 40 -14 3 -41 9 -60 14 -19 5 -51 12 -70 15
-19 3 -42 8 -50 10 -8 2 -31 7 -50 10 -38 7 -109 19 -197 35 -32 6 -76 13 -98
15 -22 3 -57 8 -77 11 -127 18 -208 26 -478 49 -102 9 -576 24 -583 19z m393
-419 c85 -3 171 -8 190 -9 19 -2 71 -7 115 -10 44 -4 91 -9 105 -11 14 -2 52
-7 84 -10 33 -3 73 -8 90 -10 245 -37 240 -36 371 -61 44 -9 94 -18 110 -20
17 -3 55 -12 85 -19 30 -8 66 -16 80 -19 134 -26 655 -179 735 -216 11 -5 52
-20 90 -33 356 -125 938 -414 1248 -619 32 -21 60 -38 62 -38 2 0 34 -21 72
-47 37 -26 88 -60 113 -77 80 -54 273 -197 375 -279 478 -385 903 -829 1255
-1313 100 -137 270 -389 270 -400 0 -4 6 -15 14 -23 27 -31 210 -359 297 -531
193 -387 351 -789 459 -1175 17 -60 35 -123 40 -140 5 -16 25 -102 45 -190 41
-177 41 -177 55 -255 6 -30 12 -66 15 -80 8 -42 20 -113 31 -189 4 -25 8 -54
10 -65 2 -10 6 -44 9 -75 3 -31 8 -65 10 -77 3 -11 7 -52 10 -90 3 -38 8 -85
10 -104 21 -183 32 -686 20 -915 -4 -81 -16 -263 -20 -300 -1 -16 -6 -60 -9
-98 -4 -37 -11 -102 -17 -145 -5 -42 -12 -93 -14 -112 -10 -81 -37 -235 -66
-380 -12 -58 -25 -123 -29 -145 -52 -258 -232 -838 -330 -1060 -10 -22 -37
-85 -60 -140 -44 -107 -248 -523 -301 -615 -17 -30 -39 -68 -48 -85 -9 -16
-29 -49 -44 -72 -15 -24 -27 -45 -27 -48 0 -7 -157 -248 -234 -360 -314 -452
-686 -872 -1081 -1220 -38 -33 -73 -65 -79 -70 -18 -17 -239 -198 -275 -225
-158 -119 -241 -178 -401 -285 -718 -477 -1502 -807 -2351 -990 -9 -2 -32 -6
-50 -9 -19 -3 -65 -12 -104 -20 -38 -8 -90 -17 -115 -21 -25 -3 -52 -8 -60
-10 -8 -2 -40 -7 -70 -10 -30 -4 -57 -8 -60 -10 -3 -1 -36 -6 -75 -9 -38 -4
-77 -9 -85 -11 -8 -2 -51 -7 -95 -10 -44 -4 -93 -9 -110 -10 -260 -28 -905
-27 -1179 0 -23 3 -68 7 -101 10 -67 7 -276 33 -315 39 -14 3 -38 7 -55 9
-156 25 -312 55 -430 82 -38 9 -77 18 -85 20 -72 16 -160 38 -185 45 -16 6
-93 28 -170 51 -221 64 -537 176 -697 247 -24 11 -92 41 -153 67 -105 46 -425
206 -510 255 -22 12 -60 34 -85 48 -315 177 -743 479 -1050 743 -165 141 -527
498 -651 639 -41 47 -76 87 -79 90 -16 15 -165 198 -202 247 -23 32 -46 60
-49 63 -17 14 -187 256 -285 405 -515 783 -878 1719 -1019 2635 -9 58 -18 116
-21 130 -7 45 -30 241 -39 335 -29 325 -33 744 -11 1090 16 238 63 601 101
785 7 36 16 81 19 100 21 131 121 513 192 730 192 593 457 1143 798 1660 56
86 195 283 228 325 132 168 256 323 268 335 8 9 30 34 49 56 166 194 426 455
646 650 182 160 486 395 672 519 37 25 77 51 88 59 54 36 141 92 150 96 5 3
64 37 130 77 679 405 1471 696 2288 838 15 3 42 8 60 11 17 3 48 7 67 10 19 2
62 9 95 14 33 5 87 12 120 15 33 3 76 8 95 10 32 4 93 10 210 20 25 3 117 7
205 11 88 4 161 7 162 8 4 3 327 -3 463 -9z"/>
<path d="M7157 11774 c-1 -1 -90 -4 -197 -8 -107 -4 -215 -9 -240 -11 -25 -2
-79 -7 -120 -10 -41 -3 -88 -8 -105 -10 -80 -10 -124 -16 -170 -20 -27 -3 -90
-12 -140 -21 -49 -8 -103 -17 -120 -20 -31 -5 -131 -22 -175 -31 -107 -19
-423 -98 -550 -137 -30 -9 -62 -18 -70 -21 -120 -29 -495 -177 -695 -275 -392
-190 -708 -406 -953 -649 -211 -210 -383 -438 -495 -658 -134 -265 -167 -399
-171 -703 -4 -224 5 -299 49 -415 67 -180 212 -368 370 -481 63 -44 163 -94
190 -94 20 0 19 -16 -3 -48 -80 -116 -141 -288 -146 -414 -6 -143 25 -254 130
-469 l72 -147 -43 -31 c-53 -38 -122 -117 -163 -188 -121 -205 -127 -478 -18
-725 l26 -58 -22 0 c-12 0 -64 -20 -115 -45 -125 -61 -206 -141 -262 -258 -53
-113 -64 -161 -66 -311 -2 -140 12 -227 59 -363 25 -75 35 -94 95 -198 95
-161 256 -298 421 -357 l65 -23 3590 -3 c2697 -2 3604 0 3645 9 275 58 556
351 635 663 40 159 22 449 -38 591 -57 136 -173 231 -343 281 l-61 18 29 69
c80 188 95 408 38 571 -46 134 -121 246 -214 318 l-54 41 55 110 c78 158 99
208 123 293 54 191 19 394 -100 590 -22 37 -37 70 -33 74 4 4 30 15 56 25 101
36 262 165 347 275 19 25 37 47 40 50 14 12 81 131 108 191 53 119 67 190 66
344 -1 126 -11 292 -19 305 -2 3 -6 30 -10 60 -11 91 -61 273 -106 386 -49
123 -123 256 -206 369 -68 94 -418 449 -548 556 -307 253 -760 498 -1233 665
-192 68 -561 174 -692 197 -20 4 -82 16 -110 22 -3 1 -25 5 -50 9 -25 5 -54
10 -65 12 -25 5 -133 24 -161 29 -12 2 -48 7 -80 10 -33 4 -68 9 -79 11 -11 2
-45 6 -75 9 -30 3 -68 8 -85 10 -16 2 -68 7 -115 10 -47 4 -101 9 -120 11 -73
7 -567 23 -573 18z m508 -418 c39 -4 95 -9 125 -11 91 -8 153 -15 190 -20 19
-2 73 -9 120 -15 73 -9 129 -18 285 -45 17 -3 53 -10 80 -15 28 -6 60 -12 73
-15 12 -2 80 -18 150 -35 70 -17 136 -33 147 -36 89 -17 489 -151 610 -203 11
-5 36 -16 55 -24 602 -257 1049 -599 1330 -1016 64 -96 157 -282 190 -381 82
-245 83 -496 4 -677 -74 -171 -222 -290 -395 -319 -57 -9 -6716 -12 -6789 -2
-291 38 -478 271 -483 603 -1 118 6 181 32 290 118 483 540 962 1151 1308 477
270 1214 500 1835 572 28 3 64 8 80 10 17 2 59 7 95 10 36 3 83 8 105 10 22 3
87 7 145 11 58 3 106 7 108 9 5 5 686 -3 757 -9z m2634 -3260 c170 -20 300
-197 318 -434 l4 -62 -53 5 c-135 12 -182 36 -356 176 -196 158 -400 219 -737
219 -206 0 -329 -47 -602 -233 -226 -153 -317 -194 -448 -200 -141 -8 -320 58
-495 181 -127 89 -166 113 -235 147 -250 120 -535 143 -794 63 -102 -31 -206
-84 -331 -167 -142 -95 -230 -144 -317 -177 -235 -89 -396 -57 -648 131 -186
138 -297 200 -413 229 -91 23 -119 26 -257 26 -188 0 -279 -10 -370 -39 -95
-31 -135 -47 -147 -59 -7 -7 -16 -12 -21 -12 -13 0 -160 -100 -242 -165 -103
-81 -169 -110 -278 -120 l-60 -6 6 63 c16 165 71 289 162 363 56 47 107 67
185 74 86 8 6059 5 6129 -3z m-674 -499 c87 -6 199 -44 274 -93 66 -44 311
-225 311 -230 0 -2 -298 -4 -662 -4 l-663 1 45 41 c57 52 287 204 355 234 62
27 112 41 180 50 28 3 51 7 53 9 2 2 11 1 20 -1 9 -2 49 -5 87 -7z m-4599 -10
c38 -8 95 -27 127 -41 73 -32 332 -203 371 -245 l30 -31 -662 0 c-364 0 -662
2 -662 4 0 2 35 33 78 67 268 217 491 293 718 246z m2414 -22 c92 -34 119 -51
297 -184 l142 -106 -330 -3 c-181 -1 -477 -1 -659 0 l-329 3 142 106 c171 128
222 159 307 187 89 29 98 30 235 27 102 -2 131 -7 195 -30z m3082 -728 c63
-31 117 -81 153 -142 27 -45 52 -143 50 -192 -8 -140 -105 -248 -275 -306
l-65 -22 -3140 -2 c-3443 -3 -3207 -7 -3341 56 -69 32 -124 83 -156 144 -19
36 -22 57 -22 142 0 85 4 108 26 156 45 98 115 160 208 185 35 10 749 12 3275
11 l3230 -2 57 -28z m387 -1082 c72 -19 120 -59 155 -128 71 -141 18 -367
-121 -513 -59 -62 -113 -97 -192 -124 -60 -20 -66 -20 -3533 -20 -2865 0
-3482 3 -3523 14 -181 48 -294 187 -329 406 -23 142 -9 245 43 304 19 22 84
56 126 67 17 4 1670 7 3675 8 3139 1 3652 -1 3699 -14z"/>
<path d="M6085 10613 c-90 -47 -117 -125 -84 -246 22 -82 110 -143 190 -133
106 14 183 89 193 188 8 83 -33 154 -109 189 -50 23 -148 24 -190 2z"/>
<path d="M8170 10614 c-43 -18 -77 -50 -97 -88 -20 -39 -21 -133 -1 -171 68
-129 235 -162 323 -64 39 43 55 95 56 174 1 66 -29 113 -91 145 -48 24 -139
26 -190 4z"/>
<path d="M4961 9644 c-114 -33 -176 -184 -119 -285 16 -28 37 -47 75 -66 48
-23 62 -25 123 -20 141 12 207 105 169 240 -28 102 -142 163 -248 131z"/>
<path d="M7167 9645 c-66 -17 -113 -65 -134 -134 -41 -143 39 -243 193 -238
85 3 142 32 173 87 49 88 7 224 -84 268 -56 28 -93 32 -148 17z"/>
<path d="M9361 9644 c-81 -24 -129 -90 -138 -190 -10 -107 72 -183 198 -184
113 0 199 72 199 167 0 150 -123 247 -259 207z"/>
<path d="M4020 3458 l0 -468 88 0 88 0 -1 203 0 202 214 3 c124 1 217 -2 220
-7 3 -5 5 -97 5 -205 l-1 -196 88 0 89 0 0 469 0 469 -87 -2 -88 -1 -2 -195
c-1 -107 -2 -197 -2 -200 -1 -5 -412 -5 -431 -1 -3 0 -5 85 -5 189 1 103 0
192 -2 198 -3 7 -36 11 -88 10 l-85 0 0 -468z"/>
<path d="M6949 3926 c0 -2 -1 -886 0 -914 l1 -24 233 4 232 3 65 32 c77 38
112 71 139 135 27 64 24 160 -8 211 -23 38 -85 80 -134 92 l-27 7 38 19 c110
55 151 163 106 285 -23 64 -98 119 -189 139 -24 6 -453 16 -456 11z m420 -152
c95 -38 94 -198 -2 -234 -17 -7 -80 -14 -139 -16 l-106 -3 -1 134 -2 135 106
0 c72 0 117 -5 144 -16z m44 -398 c81 -55 70 -189 -19 -231 -48 -23 -261 -29
-269 -7 -2 7 -5 69 -4 138 l0 126 132 -4 c109 -3 137 -6 160 -22z"/>
<path d="M5172 3654 c-147 -38 -233 -171 -227 -350 6 -149 85 -263 215 -307
104 -35 267 -8 345 57 l39 33 -28 36 c-34 44 -50 45 -119 11 -71 -36 -161 -37
-212 -3 -36 25 -68 79 -80 137 -6 29 -4 32 17 33 13 0 110 1 216 1 223 1 216
-2 208 98 -9 102 -54 180 -129 224 -67 40 -162 51 -245 30z m153 -118 c18 -8
41 -25 50 -39 21 -33 36 -85 25 -92 -8 -5 -142 -8 -259 -6 -32 1 -33 2 -27 32
19 94 118 144 211 105z"/>
<path d="M5961 3659 c-18 -6 -55 -32 -83 -60 -48 -48 -60 -57 -56 -41 6 19
-14 92 -25 93 -88 7 -117 4 -118 -10 -3 -57 -4 -628 -1 -638 3 -9 28 -13 81
-13 l78 0 0 209 c0 204 0 211 23 244 35 52 71 69 138 67 31 -1 62 -1 68 -1 6
1 14 18 17 39 3 20 8 51 12 68 6 29 4 32 -26 43 -37 13 -61 13 -108 0z"/>
<path d="M6420 3658 c-45 -8 -101 -27 -110 -38 -3 -3 -17 -13 -33 -23 -45 -29
-94 -114 -110 -191 -24 -125 5 -247 80 -327 58 -62 126 -91 224 -95 120 -5
214 33 274 111 104 138 87 387 -34 490 -78 65 -185 92 -291 73z m151 -141 c55
-37 74 -86 74 -197 -1 -146 -41 -206 -142 -215 -118 -10 -177 62 -177 215 1
150 51 220 160 220 36 0 61 -6 85 -23z"/>
<path d="M8798 3656 c-43 -16 -87 -50 -117 -91 l-21 -30 -1 25 c-1 38 -8 72
-19 85 -5 6 -35 10 -67 9 l-58 -1 -1 -332 -2 -331 79 0 79 0 1 43 c0 23 1 117
1 210 0 167 0 167 28 205 36 49 75 66 145 60 56 -5 66 0 72 32 12 55 14 108 5
114 -23 14 -89 15 -124 2z"/>
<path d="M9215 3663 c-134 -26 -207 -102 -207 -215 1 -59 24 -109 68 -147 34
-30 34 -30 12 -45 -60 -42 -76 -124 -34 -169 l24 -26 -33 -20 c-45 -26 -67
-63 -67 -111 1 -82 70 -141 189 -164 225 -43 423 62 423 223 0 114 -71 153
-300 165 -110 6 -137 20 -118 62 9 20 17 22 82 21 88 0 164 23 208 66 52 50
62 75 63 152 1 69 1 69 31 76 47 9 54 17 54 60 l0 39 -94 0 c-61 0 -106 5
-130 15 -36 15 -132 25 -171 18z m132 -130 c50 -33 52 -121 3 -165 -33 -31
-82 -37 -139 -17 -56 20 -75 105 -37 164 28 43 120 52 173 18z m33 -516 c40
-10 69 -33 66 -50 -12 -68 -51 -90 -161 -93 -92 -3 -146 14 -163 51 -13 29 -7
51 22 83 19 21 28 23 111 21 49 -1 106 -7 125 -12z"/>
<path d="M9907 3658 c-136 -29 -233 -151 -241 -302 -8 -166 64 -297 194 -353
89 -38 253 -23 337 30 65 41 69 51 38 92 -33 42 -49 43 -118 8 -70 -35 -161
-36 -212 -2 -57 38 -107 168 -66 170 9 0 105 1 214 1 228 0 223 -2 214 98 -14
154 -117 257 -265 264 -31 1 -74 -1 -95 -6z m154 -131 c36 -24 54 -54 63 -99
4 -26 3 -27 -47 -30 -29 -2 -96 -2 -149 0 -111 4 -114 7 -75 77 41 73 140 98
208 52z"/>
<path d="M10682 3659 c-34 -10 -122 -89 -123 -111 -1 -21 -18 25 -18 52 -2 44
-15 53 -80 54 -59 2 -61 1 -62 -24 -1 -31 -1 -599 0 -622 1 -16 12 -18 79 -18
l78 0 1 209 c1 200 3 211 24 244 32 49 75 69 140 67 30 -1 59 -1 65 -1 9 1 34
99 34 133 0 9 -60 28 -84 27 -12 0 -36 -5 -54 -10z"/>
<path d="M7768 3641 c-10 -45 -1 -460 11 -503 18 -63 70 -122 126 -144 81 -30
198 -6 263 56 21 20 23 20 28 3 20 -64 20 -64 86 -61 l63 3 0 315 c0 173 -1
322 -3 330 -3 13 -18 15 -75 14 -40 -1 -75 -2 -78 -3 -3 -1 -5 -105 -5 -233 1
-205 -1 -234 -16 -253 -26 -34 -87 -59 -138 -57 -37 1 -50 6 -72 32 -32 35
-30 17 -32 300 l-1 214 -77 1 c-62 1 -77 -2 -80 -14z"/>
</g>
</svg>
